<svg id="Capa_1" enable-background="new 0 0 512.001 512.001" height="85" viewBox="0 0 512.001 512.001" width="85" xmlns="http://www.w3.org/2000/svg">
<g><path fill="#FFFFFF" d="m314.201 301.418c-39.3 63.001-13.801 121.501 13.801 147.9l70.498-113.099c4.2-6.901 13.5-9 20.7-4.801 6.899 4.501 9 13.801 4.799 20.7l-70.8 113.401c41.7 16.199 105.101 2.999 140.2-53.101 43.2-69.3-2.1-171.899-4.2-176.1-2.401-5.7-8.101-9.6-14.099-9-2.401.3-32.501 1.5-66.7 11.1-33.899 9.901-72.6 28.201-94.199 63z"/><path fill="#FFFFFF" d="m328.001 449.318-24.6 39.901c-4.501 6.899-2.401 16.201 4.799 20.4 6.899 4.501 16.201 2.401 20.4-4.799l24.6-39.3c-4.799-1.8-9.3-3.9-13.5-6.601-3.9-2.4-7.799-5.401-11.699-9.601z"/><path fill="#FFFFFF" d="m241.001 270.218v-133.2c0-8.401 6.599-15 15-15s15 6.599 15 15v133.2c37.5-7.8 90-43.801 90-118.2-.001-81.599-92.701-146.825-96.6-149.524-5.101-3.301-11.7-3.301-16.802 0-3.898 2.699-96.599 67.925-96.599 149.524.001 74.4 52.501 110.4 90.001 118.2z"/><path fill="#FFFFFF" d="m241.001 270.218v46.8c0 8.401 6.599 15 15 15s15-6.599 15-15v-46.8c-5.4 1.199-10.499 1.8-15 1.8s-9.601-.6-15-1.8z"/><path fill="#FFFFFF" d="m158.801 465.519-70.8-113.401c-4.2-6.899-2.1-16.199 4.799-20.7 7.2-4.199 16.5-2.1 20.7 4.801l70.5 113.099c27.601-26.398 53.101-84.899 13.801-147.9-42.9-69.3-156.099-73.799-160.901-74.099-5.999-.601-11.699 3.3-14.099 9-2.1 4.2-47.401 106.8-4.2 176.1 35.699 57.599 99.1 68.698 140.2 53.1z"/><path fill="#FFFFFF" d="m158.801 465.519 24.6 39.3c4.199 7.2 13.5 9.3 20.4 4.799 7.2-4.199 9.3-13.5 4.799-20.4l-24.6-39.9c-3.9 4.2-7.798 7.202-11.699 9.6-4.2 2.701-8.701 4.801-13.5 6.601z"/></g></svg>